<svg viewBox="0 0 641 86" xmlns="http://www.w3.org/2000/svg">
<path d="M28.796 68.448C10.764 68.448 0 54.372 0 34.316C0 13.984 11.5 0 31.188 0C48.76 0 56.212 10.856 57.776 19.964L45.908 21.896C44.896 16.1 40.756 9.476 31.004 9.476C19.044 9.476 12.236 19.412 12.236 34.224C12.236 48.668 18.584 58.88 31.096 58.88C44.16 58.88 47.656 48.024 47.656 42.136V40.94H29.992V31.648H58.512V66.884H49.956L48.944 56.856C45.908 63.848 38.548 68.448 28.796 68.448Z" />
<path d="M88.3861 67.988C74.2181 67.988 65.7541 59.34 65.7541 44.344C65.7541 29.164 74.1261 19.78 87.8341 19.78C101.266 19.78 108.902 27.6 108.902 41.676V46.644H76.6101C76.7021 54.464 81.5781 59.248 88.7541 59.248C93.9981 59.248 97.8621 56.58 99.8861 51.612L108.534 55.568C105.13 63.48 97.7701 67.988 88.3861 67.988ZM76.6101 39.376H97.8621V38.64C97.8621 31.28 94.0901 27.232 87.5581 27.232C80.7501 27.232 76.7941 31.74 76.6101 39.376Z" />
<path d="M116.42 66.884V20.884H127.092V29.808C130.22 23 135.188 19.78 142.364 19.78C152.392 19.78 157.544 26.128 157.544 38.364V66.884H146.32V39.56C146.32 32.292 143.468 28.704 137.764 28.704C131.416 28.704 127.552 33.856 127.552 42.504V66.884H116.42Z" />
<path d="M187.714 67.988C173.546 67.988 165.082 59.34 165.082 44.344C165.082 29.164 173.454 19.78 187.162 19.78C200.594 19.78 208.23 27.6 208.23 41.676V46.644H175.938C176.03 54.464 180.906 59.248 188.082 59.248C193.326 59.248 197.19 56.58 199.214 51.612L207.862 55.568C204.458 63.48 197.098 67.988 187.714 67.988ZM175.938 39.376H197.19V38.64C197.19 31.28 193.418 27.232 186.886 27.232C180.078 27.232 176.122 31.74 175.938 39.376Z" />
<path d="M226.235 32.016C228.535 24.656 233.411 19.78 240.863 19.78C241.323 19.78 241.691 19.78 242.151 19.872V30.636C241.599 30.544 241.139 30.544 240.587 30.544C236.171 30.544 233.227 31.74 231.111 33.764C227.339 37.444 226.879 42.596 226.879 47.656V66.884H215.747V20.884H226.235V32.016Z" />
<path d="M259.835 67.988C250.451 67.988 244.195 62.56 244.195 54.372C244.195 49.956 246.127 46.276 249.807 43.976C253.027 42.044 257.351 40.848 264.711 39.836L274.555 38.548V37.444C274.555 30.544 271.795 27.692 266.091 27.692C260.663 27.692 257.443 30.452 257.075 35.696H245.667C246.311 25.944 254.131 19.78 265.999 19.78C279.707 19.78 285.779 25.576 285.779 38.916V52.624C285.779 58.972 286.239 63.572 287.251 66.884H276.027C275.567 64.492 275.383 61.916 275.291 59.064C273.083 64.584 267.195 67.988 259.835 67.988ZM263.423 60.076C270.323 60.076 274.831 55.2 274.831 48.024V45.08L264.527 46.644C258.363 47.656 255.695 49.864 255.695 53.82C255.695 57.684 258.731 60.076 263.423 60.076Z" />
<path d="M306.711 0.184003V66.884H295.579V0.184003H306.711Z" />
<path d="M335.98 66.884V1.564H347.94V56.948H376.368V66.884H335.98Z" />
<path d="M401.513 67.988C387.345 67.988 378.881 59.34 378.881 44.344C378.881 29.164 387.253 19.78 400.961 19.78C414.393 19.78 422.029 27.6 422.029 41.676V46.644H389.737C389.829 54.464 394.705 59.248 401.881 59.248C407.125 59.248 410.989 56.58 413.013 51.612L421.661 55.568C418.257 63.48 410.897 67.988 401.513 67.988ZM389.737 39.376H410.989V38.64C410.989 31.28 407.217 27.232 400.685 27.232C393.877 27.232 389.921 31.74 389.737 39.376Z" />
<path d="M447.668 85.928C431.936 85.928 426.048 80.5 426.048 74.152C426.048 70.104 428.716 66.7 433.776 65.136C429.728 63.48 427.888 60.444 427.888 56.856C427.888 52.072 430.74 48.76 435.248 47.012C431.66 44.252 429.544 40.02 429.544 35.236C429.544 26.128 436.72 19.78 448.496 19.78C452.268 19.78 455.488 20.424 458.248 21.62C459.72 16.56 463.768 13.156 470.392 13.156C471.22 13.156 471.956 13.248 472.876 13.432V21.712C471.588 21.436 470.392 21.344 469.104 21.344C466.16 21.344 463.952 22.264 462.572 24.288C465.792 27.048 467.448 30.82 467.448 35.236C467.448 44.344 460.272 50.968 448.496 50.968C445 50.968 441.964 50.416 439.296 49.312C437.824 50.14 436.996 51.244 436.996 52.808C436.996 55.2 439.02 57.04 443.988 57.04H456.04C466.804 57.04 472.324 61.824 472.324 70.196C472.324 79.764 464.32 85.928 447.668 85.928ZM448.496 44.16C453.556 44.16 456.868 40.388 456.868 35.328C456.868 30.084 453.556 26.588 448.496 26.588C443.344 26.588 440.124 30.176 440.124 35.236C440.124 40.388 443.344 44.16 448.496 44.16ZM435.248 72.036C435.248 76.912 440.584 78.66 448.496 78.66C458.892 78.66 462.296 75.808 462.296 72.128C462.296 68.448 459.536 66.516 454.384 66.516H442.332C440.952 66.516 439.664 66.424 438.56 66.332C436.26 67.804 435.248 69.828 435.248 72.036Z" />
<path d="M491.513 67.988C482.129 67.988 475.873 62.56 475.873 54.372C475.873 49.956 477.805 46.276 481.485 43.976C484.705 42.044 489.029 40.848 496.389 39.836L506.233 38.548V37.444C506.233 30.544 503.473 27.692 497.769 27.692C492.341 27.692 489.121 30.452 488.753 35.696H477.345C477.989 25.944 485.809 19.78 497.677 19.78C511.385 19.78 517.457 25.576 517.457 38.916V52.624C517.457 58.972 517.917 63.572 518.929 66.884H507.705C507.245 64.492 507.061 61.916 506.969 59.064C504.761 64.584 498.873 67.988 491.513 67.988ZM495.101 60.076C502.001 60.076 506.509 55.2 506.509 48.024V45.08L496.205 46.644C490.041 47.656 487.373 49.864 487.373 53.82C487.373 57.684 490.409 60.076 495.101 60.076Z" />
<path d="M538.389 0.184003V66.884H527.257V0.184003H538.389Z" />
<path d="M640.388 32.884C640.388 50.8333 625.837 65.384 607.888 65.384C589.939 65.384 575.388 50.8333 575.388 32.884C575.388 14.9348 589.939 0.384005 607.888 0.384005C625.837 0.384005 640.388 14.9348 640.388 32.884Z" />
</svg>
